<svg width="32" height="32" viewBox="0 0 32 32" fill="none" xmlns="http://www.w3.org/2000/svg">
  <!-- Background circle with gradient -->
  <circle cx="16" cy="16" r="15" fill="url(#grad1)" stroke="url(#grad2)" stroke-width="2"/>
  
  <!-- Document icon -->
  <rect x="8" y="6" width="12" height="16" rx="1.5" fill="white" fill-opacity="0.9"/>
  <rect x="9" y="8" width="8" height="1" rx="0.5" fill="url(#grad2)" fill-opacity="0.7"/>
  <rect x="9" y="10" width="10" height="1" rx="0.5" fill="url(#grad2)" fill-opacity="0.6"/>
  <rect x="9" y="12" width="6" height="1" rx="0.5" fill="url(#grad2)" fill-opacity="0.5"/>
  
  <!-- AI/Gemini star elements -->
  <circle cx="14" cy="16" r="1.5" fill="url(#grad2)" fill-opacity="0.8"/>
  <circle cx="18" cy="16" r="1.5" fill="url(#grad2)" fill-opacity="0.8"/>
  <path d="M16 14.5 L17 15.5 L16 16.5 L15 15.5 Z" fill="white"/>
  
  <!-- Sparkle/AI indicator -->
  <path d="M22 10 L23 8 L24 10 L23 12 Z" fill="white" fill-opacity="0.8"/>
  <path d="M25 13 L26 12 L27 13 L26 14 Z" fill="white" fill-opacity="0.6"/>
  
  <defs>
    <linearGradient id="grad1" x1="0%" y1="0%" x2="100%" y2="100%">
      <stop offset="0%" style="stop-color:#3B82F6;stop-opacity:1" />
      <stop offset="50%" style="stop-color:#6366F1;stop-opacity:1" />
      <stop offset="100%" style="stop-color:#8B5CF6;stop-opacity:1" />
    </linearGradient>
    <linearGradient id="grad2" x1="0%" y1="0%" x2="100%" y2="100%">
      <stop offset="0%" style="stop-color:#1E40AF;stop-opacity:1" />
      <stop offset="100%" style="stop-color:#7C3AED;stop-opacity:1" />
    </linearGradient>
  </defs>
</svg>