<svg width="1280" height="720" viewBox="0 0 1280 720" fill="none" xmlns="http://www.w3.org/2000/svg" role="img" aria-labelledby="title desc">
  <title id="title">Open Gemini OCR Templates Hero</title>
  <desc id="desc">Illustration of the Templates workflow and AI eval reporting.</desc>
  <rect width="1280" height="720" fill="#F5F5F4"/>
  <rect x="40" y="40" width="1200" height="640" rx="32" fill="#FBFAF9" stroke="#D6D3D1" stroke-width="2"/>
  <rect x="88" y="88" width="364" height="544" rx="28" fill="#FFFFFF" stroke="#D6D3D1" stroke-width="2"/>
  <text x="120" y="152" fill="#1C1917" font-family="Georgia, serif" font-size="42" font-weight="700">Templates</text>
  <text x="120" y="194" fill="#57534E" font-family="Arial, sans-serif" font-size="20">One upload. Three artifacts. Repeated AI evals.</text>
  <rect x="120" y="240" width="300" height="76" rx="20" fill="#1C1917"/>
  <text x="152" y="286" fill="#FFFFFF" font-family="Arial, sans-serif" font-size="24" font-weight="700">Invoice preset</text>
  <rect x="120" y="336" width="300" height="76" rx="20" fill="#FFFFFF" stroke="#D6D3D1" stroke-width="2"/>
  <text x="152" y="382" fill="#1C1917" font-family="Arial, sans-serif" font-size="24" font-weight="700">Receipt preset</text>
  <rect x="120" y="432" width="300" height="76" rx="20" fill="#FFFFFF" stroke="#D6D3D1" stroke-width="2"/>
  <text x="152" y="478" fill="#1C1917" font-family="Arial, sans-serif" font-size="24" font-weight="700">Resume preset</text>
  <rect x="120" y="528" width="300" height="76" rx="20" fill="#FFFFFF" stroke="#D6D3D1" stroke-width="2"/>
  <text x="152" y="574" fill="#1C1917" font-family="Arial, sans-serif" font-size="24" font-weight="700">Business card</text>
  <rect x="500" y="112" width="320" height="480" rx="30" fill="#1C1917"/>
  <rect x="528" y="148" width="264" height="36" rx="12" fill="#E34234"/>
  <text x="550" y="172" fill="#FFFFFF" font-family="Arial, sans-serif" font-size="16" font-weight="700">Markdown artifact</text>
  <text x="540" y="232" fill="#FFFFFF" font-family="Arial, sans-serif" font-size="32" font-weight="700">Invoice Extraction</text>
  <text x="540" y="278" fill="#D6D3D1" font-family="Arial, sans-serif" font-size="18">Structured extraction for invoice.</text>
  <rect x="540" y="316" width="240" height="18" rx="9" fill="#44403C"/>
  <rect x="540" y="350" width="240" height="18" rx="9" fill="#44403C"/>
  <rect x="540" y="384" width="212" height="18" rx="9" fill="#44403C"/>
  <rect x="540" y="438" width="240" height="96" rx="18" fill="#292524"/>
  <rect x="560" y="462" width="88" height="14" rx="7" fill="#E7E5E4"/>
  <rect x="676" y="462" width="80" height="14" rx="7" fill="#E7E5E4"/>
  <rect x="560" y="494" width="196" height="10" rx="5" fill="#A8A29E"/>
  <rect x="560" y="516" width="196" height="10" rx="5" fill="#A8A29E"/>
  <rect x="874" y="112" width="318" height="228" rx="28" fill="#FFFFFF" stroke="#D6D3D1" stroke-width="2"/>
  <text x="906" y="162" fill="#1C1917" font-family="Georgia, serif" font-size="34" font-weight="700">AI Evals</text>
  <text x="906" y="196" fill="#57534E" font-family="Arial, sans-serif" font-size="18">Nightly reports for shipped presets</text>
  <text x="906" y="246" fill="#1C1917" font-family="Arial, sans-serif" font-size="56" font-weight="700">75.0%</text>
  <text x="906" y="282" fill="#57534E" font-family="Arial, sans-serif" font-size="18">minimum weighted score target</text>
  <rect x="906" y="304" width="244" height="8" rx="4" fill="#E7E5E4"/>
  <rect x="906" y="304" width="183" height="8" rx="4" fill="#E34234"/>
  <rect x="874" y="364" width="318" height="228" rx="28" fill="#FFFFFF" stroke="#D6D3D1" stroke-width="2"/>
  <text x="906" y="414" fill="#1C1917" font-family="Georgia, serif" font-size="34" font-weight="700">Artifacts</text>
  <rect x="906" y="450" width="84" height="44" rx="14" fill="#1C1917"/>
  <text x="928" y="478" fill="#FFFFFF" font-family="Arial, sans-serif" font-size="18" font-weight="700">.md</text>
  <rect x="1004" y="450" width="84" height="44" rx="14" fill="#FFFFFF" stroke="#D6D3D1" stroke-width="2"/>
  <text x="1026" y="478" fill="#1C1917" font-family="Arial, sans-serif" font-size="18" font-weight="700">.json</text>
  <rect x="1102" y="450" width="84" height="44" rx="14" fill="#FFFFFF" stroke="#D6D3D1" stroke-width="2"/>
  <text x="1126" y="478" fill="#1C1917" font-family="Arial, sans-serif" font-size="18" font-weight="700">.csv</text>
  <text x="906" y="534" fill="#57534E" font-family="Arial, sans-serif" font-size="18">Made for repeatable extraction workflows,</text>
  <text x="906" y="562" fill="#57534E" font-family="Arial, sans-serif" font-size="18">public evals, and GitHub-native proof.</text>
</svg>
