<svg width="1200" height="720" viewBox="0 0 1200 720" fill="none" xmlns="http://www.w3.org/2000/svg" role="img" aria-labelledby="title desc">
  <title id="title">Mode Comparison Preview</title>
  <desc id="desc">Overview of Simple OCR, Templates, Web OCR, Bulk OCR, and Agentic OCR.</desc>
  <rect width="1200" height="720" fill="#F5F5F4"/>
  <rect x="56" y="56" width="1088" height="608" rx="28" fill="#FFFFFF" stroke="#D6D3D1" stroke-width="2"/>
  <text x="104" y="130" fill="#1C1917" font-family="Georgia, serif" font-size="38" font-weight="700">Open Gemini OCR modes</text>
  <g font-family="Arial, sans-serif" font-size="20" font-weight="700" fill="#1C1917">
    <text x="112" y="230">Simple</text>
    <text x="332" y="230">Templates</text>
    <text x="572" y="230">Web</text>
    <text x="792" y="230">Bulk</text>
    <text x="1008" y="230">Agentic</text>
  </g>
  <g fill="#FBFAF9" stroke="#D6D3D1" stroke-width="2">
    <rect x="96" y="250" width="180" height="320" rx="24"/>
    <rect x="316" y="250" width="180" height="320" rx="24"/>
    <rect x="536" y="250" width="180" height="320" rx="24"/>
    <rect x="756" y="250" width="180" height="320" rx="24"/>
    <rect x="976" y="250" width="180" height="320" rx="24"/>
  </g>
  <g font-family="Arial, sans-serif" font-size="18" fill="#57534E">
    <text x="120" y="308">Single doc markdown</text>
    <text x="340" y="308">Preset JSON and CSV</text>
    <text x="560" y="308">URL context extraction</text>
    <text x="780" y="308">Queue many files</text>
    <text x="1000" y="308">Iterative tool loop</text>
  </g>
  <g fill="#E34234">
    <circle cx="128" cy="350" r="8"/>
    <circle cx="348" cy="350" r="8"/>
    <circle cx="568" cy="350" r="8"/>
    <circle cx="788" cy="350" r="8"/>
    <circle cx="1008" cy="350" r="8"/>
  </g>
  <g font-family="Arial, sans-serif" font-size="17" fill="#1C1917">
    <text x="148" y="356">Reliable text extraction</text>
    <text x="368" y="356">Structured workflows</text>
    <text x="588" y="356">Experimental in some regions</text>
    <text x="808" y="356">Batch processing</text>
    <text x="1028" y="356">Experimental orchestration</text>
  </g>
  <g fill="#A8A29E">
    <rect x="120" y="398" width="132" height="10" rx="5"/>
    <rect x="120" y="424" width="118" height="10" rx="5"/>
    <rect x="120" y="450" width="142" height="10" rx="5"/>
    <rect x="340" y="398" width="132" height="10" rx="5"/>
    <rect x="340" y="424" width="118" height="10" rx="5"/>
    <rect x="340" y="450" width="142" height="10" rx="5"/>
    <rect x="560" y="398" width="132" height="10" rx="5"/>
    <rect x="560" y="424" width="118" height="10" rx="5"/>
    <rect x="560" y="450" width="142" height="10" rx="5"/>
    <rect x="780" y="398" width="132" height="10" rx="5"/>
    <rect x="780" y="424" width="118" height="10" rx="5"/>
    <rect x="780" y="450" width="142" height="10" rx="5"/>
    <rect x="1000" y="398" width="132" height="10" rx="5"/>
    <rect x="1000" y="424" width="118" height="10" rx="5"/>
    <rect x="1000" y="450" width="142" height="10" rx="5"/>
  </g>
</svg>
